<?xml version="1.0" encoding="UTF-8"?>
<svg width="1200" height="400" viewBox="0 0 1200 400" xmlns="http://www.w3.org/2000/svg">
  <defs>
    <linearGradient id="bgGradient" x1="0%" y1="0%" x2="100%" y2="100%">
      <stop offset="0%" stop-color="#0a0f1a" />
      <stop offset="100%" stop-color="#151d2e" />
    </linearGradient>
    <linearGradient id="textGradient" x1="0%" y1="0%" x2="100%" y2="0%">
      <stop offset="0%" stop-color="#0ea5e9" />
      <stop offset="50%" stop-color="#2dd4bf" />
      <stop offset="100%" stop-color="#3b82f6" />
    </linearGradient>
    <linearGradient id="logoGradient" x1="0%" y1="0%" x2="100%" y2="100%">
      <stop offset="0%" stop-color="#4F46E5" />
      <stop offset="50%" stop-color="#3B82F6" />
      <stop offset="100%" stop-color="#10B981" />
    </linearGradient>
  </defs>

  <rect width="1200" height="400" fill="url(#bgGradient)" rx="12" ry="12" />

  <g id="content-group" transform="translate(231.6, 140.8)">
    <!-- Logo Part -->
    <g id="logo" transform="translate(0, -22.6) scale(3.2)">
      <path d="M24 8L39.6 17V35L24 44L8.4 35V17L24 8Z" fill="none" stroke="url(#logoGradient)" stroke-width="1.5" />
      <path d="M24 14L35.2 20.5V33.5L24 40L12.8 33.5V20.5L24 14Z" fill="url(#logoGradient)" fill-opacity="0.15" />
      <path d="M24 20L30 24V32L24 36L18 32V24L24 20Z" fill="url(#logoGradient)" fill-opacity="0.4" />
    </g>

    <!-- Text Part -->
    <g id="text-block" transform="translate(160, 0)">
      <text x="0" y="70" font-family="'Arial', sans-serif" font-size="80" font-weight="bold" fill="url(#textGradient)" text-anchor="start">AStack</text>
      <text x="0" y="100" font-family="'Arial', sans-serif" font-size="22" fill="#E2E8F0" text-anchor="start">
        A modular component framework for building AI applications
      </text>
    </g>
  </g>

  <path d="M0,390 L1200,390" stroke="#3b82f6" stroke-width="0.5" opacity="0.1" />
</svg>
